<svg width="571.011" height="183.711" viewBox="0 0 151.08 48.607" xmlns="http://www.w3.org/2000/svg"><title>LocalAir</title><path d="M25.74 44.78a3.835 3.835 0 0 1-3.835 3.835 3.835 3.835 0 0 1-3.836-3.835 3.835 3.835 0 0 1 3.836-3.835 3.835 3.835 0 0 1 3.835 3.835zm-16.651 0a3.835 3.835 0 0 1-3.835 3.835 3.835 3.835 0 0 1-3.836-3.835 3.835 3.835 0 0 1 3.836-3.835 3.835 3.835 0 0 1 3.835 3.835zm142-20.942q-.956-.16-2.07-.16-4.143 0-5.622 3.528v17.478h-4.21V20.061h4.096l.069 2.845q2.07-3.3 5.87-3.3 1.23 0 1.867.319zm-18.638 20.846h-4.21V20.061h4.21zM127.9 13.529q0-1.024.614-1.73.637-.705 1.866-.705t1.866.705q.637.706.637 1.73t-.637 1.707q-.637.683-1.866.683t-1.866-.683q-.615-.683-.615-1.707zm-11.47 22.507h-13.883l-3.117 8.648h-4.506l12.653-33.135h3.823l12.676 33.135h-4.483zm-12.563-3.596h11.265l-5.643-15.498zM6.72 40.367h20.816l-.87 4.878H.01L7.87.008h5.872zm79.17 4.504H81.3l4.316-24.827h4.574zm-12.074 0q-.21-.663-.177-1.584-1.972 1.972-4.462 1.907-2.295-.032-3.814-1.487-1.503-1.47-1.406-3.62.113-2.862 2.392-4.38 2.295-1.537 6.142-1.537l2.134.033.226-1.05q.097-.534.048-1.02-.08-.759-.581-1.18-.485-.436-1.293-.452-1.067-.032-1.81.534-.744.55-.954 1.6l-4.575.016q.113-2.505 2.295-4.057 2.199-1.568 5.415-1.535 2.974.064 4.655 1.778 1.681 1.697 1.407 4.38l-1.342 8.373-.08 1.034q-.033 1.148.274 1.94l-.016.307zm-3.507-3.217q1.972.065 3.443-1.713l.566-3.023-1.584-.016q-2.522.065-3.637 1.536-.404.533-.501 1.309-.13.873.355 1.39.501.501 1.358.517zm-15.857-.21q1.26.032 2.101-.679.84-.727 1.1-1.923l4.283-.016q-.113 1.842-1.164 3.313-1.034 1.471-2.78 2.295-1.73.825-3.653.776-3.184-.048-5.043-2.198t-1.794-5.722l.048-.889.016-.178q.437-4.267 2.877-6.756 2.441-2.506 6.03-2.409 2.957.065 4.687 1.94 1.746 1.859 1.713 4.914h-4.25q0-1.406-.615-2.215-.614-.808-1.843-.872-3.265-.097-3.96 4.768-.242 1.762-.178 2.974.162 2.829 2.425 2.877zm-15.97-14.386q2.311.032 3.976 1.196 1.681 1.148 2.457 3.184.792 2.021.566 4.494-.372 4.17-2.91 6.756-2.521 2.57-6.239 2.506-2.279-.033-3.944-1.164-1.664-1.148-2.457-3.168-.792-2.02-.565-4.461.42-4.332 2.942-6.886 2.521-2.554 6.174-2.457zm-4.607 11.007q.033 1.552.728 2.457.695.89 1.956.921 2.1.065 3.297-1.923 1.196-2.004 1.115-5.253-.064-1.552-.76-2.473-.678-.938-1.955-.97-2.037-.065-3.265 1.923-1.213 1.972-1.116 5.318zM8.843 4.885H2.48L3.35.007 8.843.02z" fill="#fff"/></svg>